<?xml version="1.0" encoding="UTF-8"?>
<!DOCTYPE svg PUBLIC "-//W3C//DTD SVG 1.1//EN" "http://www.w3.org/Graphics/SVG/1.1/DTD/svg11.dtd">
<!-- Creator: CorelDRAW -->
<svg xmlns="http://www.w3.org/2000/svg" xml:space="preserve" width="11.2884mm" height="10.5348mm" style="shape-rendering:geometricPrecision; text-rendering:geometricPrecision; image-rendering:optimizeQuality; fill-rule:evenodd; clip-rule:evenodd"
viewBox="0 0 0.465994 0.434885"
 xmlns:xlink="http://www.w3.org/1999/xlink">
 <defs>
  <style type="text/css">
   <![CDATA[
    .fil0 {fill:white}
   ]]>
  </style>
 </defs>
 <g id="Layer_x0020_1">
  <metadata id="CorelCorpID_0Corel-Layer"/>
  <path class="fil0" d="M0.380464 0.330325c0.0285003,0.0120829 0.0577436,-0.0245249 0.028265,-0.0494585 -0.0571161,-0.0465152 -0.114228,-0.0930345 -0.171348,-0.139554 -0.0329751,-0.0229191 -0.0703796,-0.0247974 -0.0989212,-0.00352951 -0.0555268,0.0520386 -0.0781033,0.0816947 -0.111929,0.145573 -0.0458506,0.0691701 -0.025784,0.145292 0.0112408,0.145895 0.0694838,-0.00235713 0.138959,-0.00471014 0.208443,-0.00706727 0.0624166,0.00412395 0.124829,0.00824378 0.187246,0.0123636 0.0411033,0.00538714 0.0443315,-0.056113 0.00353364,-0.0618221 -0.100919,-0.0212431 -0.202709,-0.0338214 -0.305602,-0.0353322 0.0276788,-0.0329751 0.0553493,-0.0659461 0.0830281,-0.0989212 0.0553493,0.030618 0.110694,0.0612359 0.166044,0.0918539zm-0.0653599 -0.330325c0.0409753,0 0.0741899,0.0332145 0.0741899,0.0741857 0,0.0409712 -0.0332145,0.0741899 -0.0741899,0.0741899 -0.0409712,0 -0.0741857,-0.0332187 -0.0741857,-0.0741899 0,-0.0409712 0.0332145,-0.0741857 0.0741857,-0.0741857z"/>
 </g>
</svg>
