<?xml version="1.0" encoding="UTF-8"?>
<!DOCTYPE svg PUBLIC "-//W3C//DTD SVG 1.1//EN" "http://www.w3.org/Graphics/SVG/1.1/DTD/svg11.dtd">
<!-- Creator: CorelDRAW -->
<svg xmlns="http://www.w3.org/2000/svg" xml:space="preserve" width="13.3652mm" height="16.858mm" style="shape-rendering:geometricPrecision; text-rendering:geometricPrecision; image-rendering:optimizeQuality; fill-rule:evenodd; clip-rule:evenodd"
viewBox="0 0 1.67256 2.10965"
 xmlns:xlink="http://www.w3.org/1999/xlink">
 <defs>
  <style type="text/css">
   <![CDATA[
    .fil1 {fill:white}
    .fil0 {fill:white;fill-rule:nonzero}
   ]]>
  </style>
 </defs>
 <g id="Layer_x0020_1">
  <metadata id="CorelCorpID_0Corel-Layer"/>
  <g id="_624916664">
   <path id="_624943312" class="fil0" d="M0.0433994 0l1.06195 0 0.0159557 0 0.0123641 0.0107122 0.523809 0.453467 0.0150797 0.0130524 0 0.01976 0 1.37478c0,0.0653369 -0.0266804,0.12478 -0.0696168,0.167866l-0.0001752 0.0001752c-0.0429614,0.0430741 -0.102204,0.0698421 -0.167341,0.0698421l-1.39202 0 -0.0433994 0 0 -0.0435246 0 -2.0226 0 -0.0435246 0.0433994 0zm1.046 0.0870492l-1.00262 0 0 1.93554 1.34864 0c0.0413346,0 0.0789274,-0.0169318 0.106158,-0.0441503l0.0001752 -0.0001752c0.0271434,-0.0273186 0.0440252,-0.0650366 0.0440252,-0.106496l0 -1.35502 -0.496378 -0.429702z"/>
   <path id="_624942568" class="fil0" d="M1.15218 0.0431617l0.00357908 0.327511c0.000300342,0.0296463 0.0126269,0.0568022 0.0322993,0.0765497l0 0.0001752c0.0191844,0.0192594 0.0457521,0.0312481 0.0751481,0.0312481l0.365967 0 0 0.0870492 -0.365967 0c-0.053148,0 -0.101328,-0.0218249 -0.136418,-0.0570149l-8.75998e-005 8.75998e-005c-0.0349648,-0.0350775 -0.0568022,-0.0837454 -0.0573779,-0.137394l-0.00357908 -0.327523 0.086436 -0.000688284z"/>
   <path id="_624942040" class="fil1" d="M0.294498 0.386303l0.320252 0c0.0226883,0 0.041247,0.0186087 0.041247,0.0413721l0 2.50285e-005c0,0.0227634 -0.0185586,0.0413721 -0.041247,0.0413721l-0.320252 0c-0.0226883,0 -0.041247,-0.0186087 -0.041247,-0.0413721l0 -2.50285e-005c0,-0.0227634 0.0185586,-0.0413721 0.041247,-0.0413721z"/>
   <path id="_624942088" class="fil1" d="M0.294498 0.653469l0.538438 0c0.0227009,0 0.041247,0.0186337 0.041247,0.0413721l0 2.50285e-005c0,0.0227384 -0.0185712,0.0413721 -0.041247,0.0413721l-0.538438 0c-0.0226758,0 -0.041247,-0.0186087 -0.041247,-0.0413721l0 -2.50285e-005c0,-0.0227634 0.0185586,-0.0413721 0.041247,-0.0413721z"/>
   <path id="_624941896" class="fil1" d="M1.02931 0.653469l0.39082 0c0.0227009,0 0.041247,0.0186713 0.041247,0.0413721l0 2.50285e-005c0,0.0227009 -0.0186212,0.0413721 -0.041247,0.0413721l-0.39082 0c-0.0226258,0 -0.041247,-0.0186087 -0.041247,-0.0413721l0 -2.50285e-005c0,-0.0227634 0.0185461,-0.0413721 0.041247,-0.0413721z"/>
   <path id="_624941800" class="fil1" d="M1.10631 0.956027l0.31382 0c0.0227009,0 0.041247,0.0187213 0.041247,0.0413721l0 2.50285e-005c0,0.0226508 -0.0186588,0.0413721 -0.041247,0.0413721l-0.31382 0c-0.0225882,0 -0.041247,-0.0186087 -0.041247,-0.0413721l0 -2.50285e-005c0,-0.0227634 0.0185461,-0.0413721 0.041247,-0.0413721z"/>
   <path id="_624942280" class="fil1" d="M0.793191 0.386303l0.10139 0c0.0226883,0 0.0412345,0.0186337 0.0412345,0.0413721l0 2.50285e-005c0,0.0227384 -0.0185712,0.0413721 -0.0412345,0.0413721l-0.10139 0c-0.0226633,0 -0.0412345,-0.0186087 -0.0412345,-0.0413721l0 -2.50285e-005c0,-0.0227634 0.0185461,-0.0413721 0.0412345,-0.0413721z"/>
   <path id="_624916424" class="fil1" d="M0.741607 1.19023c0,0.122652 -0.0991379,0.22209 -0.221415,0.22209 -0.122264,0 -0.221402,-0.0994383 -0.221402,-0.22209 0,-0.122665 0.0991379,-0.222103 0.221402,-0.222103l0 0.222103 0.221415 0z"/>
   <path id="_624916136" class="fil0" d="M0.476806 1.19023l0 -0.286476 0 -0.0435246 0.0433869 0c0.0908285,0 0.17311,0.0369546 0.232627,0.0966476 0.0595053,0.059693 0.0963473,0.14225 0.0963473,0.233353l0 0.0435246 -0.0433869 0 -0.285588 0 -0.0433869 0 0 -0.0435246zm0.0867864 -0.23906l0 0.195535 0.19491 0c-0.00893518,-0.0496691 -0.0329375,-0.0940697 -0.0670389,-0.128284 -0.0341013,-0.034214 -0.0783643,-0.0582789 -0.127871,-0.0672516z"/>
   <path id="_624916376" class="fil0" d="M0.296776 1.6238c-0.0165564,-0.0172822 -0.0439751,-0.0178078 -0.0612072,-0.00120137 -0.0172196,0.0166064 -0.0177452,0.0441253 -0.00118885,0.0613949l0.185061 0.192632 0.031198 -0.0300968 -0.0312356 0.0302094c0.0166189,0.0172947 0.0441002,0.0177953 0.0613574,0.00112628 0.00218999,-0.00210239 0.00409216,-0.0043925 0.00574404,-0.00683278l0.183134 -0.220526 0.235055 0.15803 -8.75998e-005 0.000100114c0.0176826,0.0118885 0.0409341,0.00901026 0.0552504,-0.00580661l0.370472 -0.325671 0 0.108974c0,0.0240274 0.0194472,0.0435246 0.0433994,0.0435246 0.0239523,0 0.0433869,-0.0194972 0.0433869,-0.0435246l0 -0.215658c0,-0.0240274 -0.0194346,-0.0435246 -0.0433869,-0.0435246l-0.221402 0c-0.0239523,0 -0.0433994,0.0194972 -0.0433994,0.0435246 0,0.0240274 0.0194472,0.0435246 0.0433994,0.0435246l0.11861 0 -0.345719 0.303909 -0.236807 -0.159206c-0.0183834,-0.0146792 -0.0452641,-0.0120262 -0.0603813,0.00618204l0.033338 0.0278567 -0.0332128 -0.027694 -0.179792 0.216547 -0.151585 -0.157792z"/>
  </g>
 </g>
</svg>
