<?xml version="1.0" encoding="UTF-8"?>
<!DOCTYPE svg PUBLIC "-//W3C//DTD SVG 1.1//EN" "http://www.w3.org/Graphics/SVG/1.1/DTD/svg11.dtd">
<!-- Creator: CorelDRAW -->
<svg xmlns="http://www.w3.org/2000/svg" xml:space="preserve" width="13.3123mm" height="13.3541mm" style="shape-rendering:geometricPrecision; text-rendering:geometricPrecision; image-rendering:optimizeQuality; fill-rule:evenodd; clip-rule:evenodd"
viewBox="0 0 0.555938 0.557683"
 xmlns:xlink="http://www.w3.org/1999/xlink">
 <defs>
  <style type="text/css">
   <![CDATA[
    .fil0 {fill:#FEFEFE;fill-rule:nonzero}
   ]]>
  </style>
 </defs>
 <g id="Layer_x0020_1">
  <metadata id="CorelCorpID_0Corel-Layer"/>
  <path class="fil0" d="M0.180534 0.540098c-0.0391177,-0.015151 -0.0719211,-0.0368041 -0.099116,-0.0640867 -0.0503014,-0.0504601 -0.0814176,-0.120172 -0.0814176,-0.197167 0,-0.0769993 0.0311163,-0.146707 0.0814176,-0.197171 0.0503055,-0.0504601 0.119796,-0.0816724 0.196553,-0.0816724 0.0767529,0 0.146248,0.0312123 0.196549,0.0816724 0.0503055,0.0504642 0.0814176,0.120172 0.0814176,0.197171 0,0.0769951 -0.0311121,0.146707 -0.0814176,0.197167 -0.0503014,0.0504642 -0.119796,0.0816724 -0.196549,0.0816724 -0.0352632,0 -0.0638069,-0.0045645 -0.0974372,-0.0175856zm0.273214 -0.437586c-0.0449852,-0.045123 -0.10713,-0.0730362 -0.175777,-0.0730362 -0.0686471,0 -0.130796,0.0279132 -0.175781,0.0730362 -0.044981,0.0451271 -0.0728065,0.107468 -0.0728065,0.176332 0,0.06886 0.0278255,0.131205 0.0728065,0.176328 0.0449852,0.0451271 0.107134,0.0730362 0.175781,0.0730362 0.0686471,0 0.130792,-0.027909 0.175777,-0.0730362 0.044981,-0.045123 0.0728065,-0.107468 0.0728065,-0.176328 0,-0.0688642 -0.0278255,-0.131205 -0.0728065,-0.176332zm-0.181122 0.000927099c0.0940754,0 0.0933906,0.0697663 0.0894024,0.124778 -0.00398819,0.0550078 -0.0152721,0.0787867 -0.0347787,0.101572l0 0.0285688 0.095512 0.0458162c-0.0722886,0.10143 -0.246454,0.0772916 -0.289585,0l0.0937539 -0.0458162 -0.000831048 -0.0285688c-0.0205382,-0.0226304 -0.0383785,-0.045883 -0.0428762,-0.101572 -0.00450186,-0.0556886 -0.00467725,-0.124778 0.0894024,-0.124778zm-0.109114 0.429585c0.00951738,0.00431811 0.0193229,0.0081142 0.0293832,0.0113549m0.357927 -0.319035c-0.0019419,-0.0100269 -0.00441833,-0.0198658 -0.00740008,-0.0294751m0.0124949 0.0797639c1.67045e-005,0.00107326 2.08806e-005,0.00214235 2.08806e-005,0.00321144 0,-0.00107326 -4.17612e-006,-0.00214235 -2.08806e-005,-0.00321144zm-0.277946 0.282051c-0.00114843,0 -0.00229269,-4.17612e-006 -0.00343695,-2.08806e-005 0.00114426,1.67045e-005 0.00228851,2.08806e-005 0.00343695,2.08806e-005zm-0.00372092 -2.50567e-005c-0.00104821,-1.25284e-005 -0.00209224,-2.92328e-005 -0.00314044,-5.84657e-005 0.00104403,2.92328e-005 0.00209224,4.59373e-005 0.00314044,5.84657e-005zm-0.00359146 -7.0994e-005c-0.00105238,-2.50567e-005 -0.00210476,-5.84657e-005 -0.00315715,-0.000100227 0.00105238,4.17612e-005 0.00210476,7.51702e-005 0.00315715,0.000100227zm-0.00371257 -0.000116931c-0.000897866,-3.75851e-005 -0.00179991,-7.93463e-005 -0.00269777,-0.000121107 0.000897866,4.17612e-005 0.00179573,8.35224e-005 0.00269777,0.000121107z"/>
 </g>
</svg>
