<?xml version="1.0" encoding="UTF-8"?>
<!DOCTYPE svg PUBLIC "-//W3C//DTD SVG 1.1//EN" "http://www.w3.org/Graphics/SVG/1.1/DTD/svg11.dtd">
<!-- Creator: CorelDRAW -->
<svg xmlns="http://www.w3.org/2000/svg" xml:space="preserve" width="6.9097mm" height="6.4484mm" style="shape-rendering:geometricPrecision; text-rendering:geometricPrecision; image-rendering:optimizeQuality; fill-rule:evenodd; clip-rule:evenodd"
viewBox="0 0 0.041301 0.0385437"
 xmlns:xlink="http://www.w3.org/1999/xlink">
 <defs>
  <style type="text/css">
   <![CDATA[
    .fil0 {fill:#126C6E}
   ]]>
  </style>
 </defs>
 <g id="Layer_x0020_1">
  <metadata id="CorelCorpID_0Corel-Layer"/>
  <path class="fil0" d="M0.0337207 0.0292766c0.00252599,0.00107112 0.00511772,-0.00217333 0.00250507,-0.00438312 -0.00506273,-0.00412311 -0.0101243,-0.00824622 -0.015187,-0.0123687 -0.00292228,-0.00203107 -0.00623726,-0.00219784 -0.00876744,-0.00031261 -0.00492107,0.00461205 -0.00692226,0.00724025 -0.00991985,0.0129019 -0.00406393,0.00613027 -0.0022851,0.0128768 0.000996408,0.01293 0.00615836,-0.000208606 0.0123161,-0.000417212 0.0184739,-0.000625818 0.00553195,0.00036521 0.0110639,0.00073042 0.0165958,0.00109563 0.00364314,0.000476985 0.00392885,-0.00497307 0.000313208,-0.00547935 -0.00894496,-0.00188283 -0.0179664,-0.00299759 -0.0270853,-0.00313148 0.00245306,-0.00292288 0.00490553,-0.00584456 0.0073586,-0.00876744 0.00490553,0.00271367 0.00981047,0.00542735 0.0147166,0.00814102zm-0.00579315 -0.0292766c0.00363118,0 0.00657558,0.0029438 0.00657558,0.00657558 0,0.00363118 -0.00294439,0.00657498 -0.00657558,0.00657498 -0.00363118,0 -0.00657498,-0.0029438 -0.00657498,-0.00657498 0,-0.00363178 0.0029438,-0.00657558 0.00657498,-0.00657558z"/>
 </g>
</svg>
