<?xml version="1.0" encoding="UTF-8"?>
<!DOCTYPE svg PUBLIC "-//W3C//DTD SVG 1.1//EN" "http://www.w3.org/Graphics/SVG/1.1/DTD/svg11.dtd">
<!-- Creator: CorelDRAW -->
<svg xmlns="http://www.w3.org/2000/svg" xml:space="preserve" width="6.2065mm" height="5.092mm" style="shape-rendering:geometricPrecision; text-rendering:geometricPrecision; image-rendering:optimizeQuality; fill-rule:evenodd; clip-rule:evenodd"
viewBox="0 0 0.0359337 0.0294811"
 xmlns:xlink="http://www.w3.org/1999/xlink">
 <defs>
  <style type="text/css">
   <![CDATA[
    .fil0 {fill:#126C6E;fill-rule:nonzero}
   ]]>
  </style>
 </defs>
 <g id="Layer_x0020_1">
  <metadata id="CorelCorpID_0Corel-Layer"/>
  <g id="_629528208">
   <path id="_629528280" class="fil0" d="M0.00718326 0.0133053l0.0169476 0c6.94762e-005,0 0.000138373,-4.05278e-006 0.000206113,-9.84246e-006 0.00167959,6.36865e-006 0.00332443,0.000581863 0.0046248,0.00157885 0.000762501,0.000584758 0.00139937,0.00130905 0.00184401,0.00213929 0.000441753,0.00082503 0.000705183,0.00176701 0.000724868,0.00279294l0 5.78968e-007 -8.10555e-006 0c1.15794e-006,5.4423e-005 4.05278e-006,0.000108846 9.26349e-006,0.000162111 -1.21583e-005,0.00175485 -0.000718499,0.00378298 -0.0024004,0.00597495 -0.000737605,0.000965719 -0.000552336,0.00234714 0.000413383,0.00308474 0.000965719,0.000737605 0.00234714,0.000552336 0.00308474,-0.000413383 0.00232977,-0.00303785 0.0032978,-0.00600332 0.00329722,-0.00867757 5.78968e-006,-7.1792e-005 7.52659e-006,-0.000144163 6.36865e-006,-0.000217692l-8.10555e-006 0c-3.41591e-005,-0.00175138 -0.000484596,-0.00336149 -0.00124131,-0.00477475 -0.000754395,-0.00140805 -0.00180696,-0.00261578 -0.00305058,-0.00356934 -0.00205649,-0.00157595 -0.00466417,-0.0024803 -0.00733032,-0.00247625 -5.67389e-005,-4.05278e-006 -0.000114057,-6.36865e-006 -0.000171954,-6.36865e-006l-0.016947 0 0.00478054 -0.00521592c0.000818082,-0.000894506 0.000756711,-0.00228403 -0.000137794,-0.00310211 -0.000894506,-0.000818082 -0.00228403,-0.000756711 -0.00310211,0.000137794l-0.0081374 0.00887906 -7.52659e-006 -6.94762e-006c-0.000801871,0.000874821 -0.000764238,0.00222266 6.88972e-005,0.00305232l0.00805866 0.00893521c0.00081345,0.000903769 0.00220703,0.000977298 0.0031108,0.000163848 0.000903769,-0.00081345 0.000977298,-0.00220703 0.000163848,-0.0031108l-0.00479849 -0.00532072z"/>
  </g>
 </g>
</svg>
