<?xml version="1.0" encoding="UTF-8"?>
<!DOCTYPE svg PUBLIC "-//W3C//DTD SVG 1.1//EN" "http://www.w3.org/Graphics/SVG/1.1/DTD/svg11.dtd">
<!-- Creator: CorelDRAW -->
<svg xmlns="http://www.w3.org/2000/svg" xml:space="preserve" width="8.2564mm" height="10.414mm" style="shape-rendering:geometricPrecision; text-rendering:geometricPrecision; image-rendering:optimizeQuality; fill-rule:evenodd; clip-rule:evenodd"
viewBox="0 0 0.721045 0.909471"
 xmlns:xlink="http://www.w3.org/1999/xlink">
 <defs>
  <style type="text/css">
   <![CDATA[
    .fil1 {fill:#126C6E}
    .fil0 {fill:#126C6E;fill-rule:nonzero}
   ]]>
  </style>
 </defs>
 <g id="Layer_x0020_1">
  <metadata id="CorelCorpID_0Corel-Layer"/>
  <g id="_626564848">
   <g>
    <path id="_627250344" class="fil0" d="M0.0187064 0l0.45781 0 0.006873 0 0.00533596 0.00461984 0.225813 0.195492 0.0065062 0.00562416 0 0.00852356 0 0.592667c0,0.0281644 -0.0115103,0.0537875 -0.0300159,0.072363l-7.85984e-005 7.85984e-005c-0.0185143,0.0185667 -0.0440588,0.0301032 -0.0721359,0.0301032l-0.600108 0 -0.0187064 0 0 -0.0187588 0 -0.871945 0 -0.0187676 0.0187064 0zm0.450937 0.0375351l-0.43223 0 0 0.83441 0.581401 0c0.0178156,0 0.0340244,-0.00730092 0.0457618,-0.0190383l7.85984e-005 -6.98653e-005c0.0117024,-0.011781 0.0189772,-0.0280334 0.0189772,-0.0459102l0 -0.584152 -0.213989 -0.185239z"/>
    <path id="_626565640" class="fil0" d="M0.496699 0.0186104l0.00154577 0.141189c0.000130997,0.0127853 0.00544076,0.0244878 0.0139294,0.0330026l0 6.98653e-005c0.0082703,0.00830524 0.0197195,0.0134753 0.0324,0.0134753l0.157765 0 0 0.0375264 -0.157765 0c-0.0229158,0 -0.043692,-0.00940561 -0.0588178,-0.0245751l-3.49326e-005 3.49326e-005c-0.0150734,-0.0151258 -0.0244878,-0.0361029 -0.024741,-0.0592283l-0.00153704 -0.141198 0.0372557 -0.000296927z"/>
    <path id="_627250272" class="fil1" d="M0.126963 0.166541l0.138054 0c0.00978987,0 0.0177807,0.00801704 0.0177807,0.0178331l0 8.73316e-006c0,0.00981607 -0.00799084,0.0178331 -0.0177807,0.0178331l-0.138054 0c-0.00978987,0 -0.0177807,-0.00801704 -0.0177807,-0.0178331l0 -8.73316e-006c0,-0.00981607 0.00799084,-0.0178331 0.0177807,-0.0178331z"/>
    <path id="_627250224" class="fil1" d="M0.126963 0.281714l0.232119 0c0.00978114,0 0.0177807,0.00803451 0.0177807,0.0178418l0 8.73316e-006c0,0.00979861 -0.00800831,0.0178331 -0.0177807,0.0178331l-0.232119 0c-0.00977241,0 -0.0177807,-0.00802577 -0.0177807,-0.0178331l0 -8.73316e-006c0,-0.00981607 0.00799084,-0.0178418 0.0177807,-0.0178418z"/>
    <path id="_627250632" class="fil1" d="M0.443732 0.281714l0.168489 0c0.00978114,0 0.0177807,0.00805197 0.0177807,0.0178418l0 8.73316e-006c0,0.00978114 -0.00802577,0.0178331 -0.0177807,0.0178331l-0.168489 0c-0.00975494,0 -0.017772,-0.00802577 -0.017772,-0.0178331l0 -8.73316e-006c0,-0.00981607 0.00799084,-0.0178418 0.017772,-0.0178418z"/>
    <path id="_627250608" class="fil1" d="M0.476927 0.412153l0.135294 0c0.00978114,0 0.0177807,0.00806071 0.0177807,0.0178331l0 8.73316e-006c0,0.00976367 -0.00804324,0.0178331 -0.0177807,0.0178331l-0.135294 0c-0.00973747,0 -0.0177807,-0.00801704 -0.0177807,-0.0178331l0 -8.73316e-006c0,-0.00981607 0.00799958,-0.0178331 0.0177807,-0.0178331z"/>
    <path id="_627250080" class="fil1" d="M0.341947 0.166541l0.0437095 0c0.00978114,0 0.0177807,0.00802577 0.0177807,0.0178331l0 8.73316e-006c0,0.00980734 -0.00800831,0.0178331 -0.0177807,0.0178331l-0.0437095 0c-0.00977241,0 -0.0177807,-0.00801704 -0.0177807,-0.0178331l0 -8.73316e-006c0,-0.00981607 0.00799958,-0.0178331 0.0177807,-0.0178331z"/>
    <path id="_626565712" class="fil1" d="M0.319704 0.513108c0,0.0528793 -0.0427314,0.0957504 -0.0954447,0.0957504 -0.0527134,0 -0.0954447,-0.0428711 -0.0954447,-0.0957504 0,-0.0528793 0.0427314,-0.0957416 0.0954447,-0.0957416l0 0.0957416 0.0954447 0z"/>
    <path id="_626565112" class="fil0" d="M0.205552 0.513108l0 -0.123496 0 -0.0187676 0.0187064 0c0.0391508,0 0.0746249,0.015938 0.100283,0.0416659 0.025658,0.0257366 0.0415349,0.0613243 0.0415349,0.100597l0 0.0187676 -0.0187064 0 -0.123111 0 -0.0187064 0 0 -0.0187676zm0.0374129 -0.103051l0 0.0842925 0.0840305 0c-0.00386006,-0.0214137 -0.0142001,-0.0405568 -0.0289068,-0.0552984 -0.0146979,-0.0147503 -0.0337799,-0.0251253 -0.0551237,-0.0289941z"/>
    <path id="_626564968" class="fil0" d="M0.127941 0.700024c-0.00713499,-0.00744939 -0.0189597,-0.00767645 -0.0263829,-0.000515256 -0.00742319,0.00716119 -0.00765025,0.0190208 -0.000515256,0.0264702l0.0797774 0.0830436 0.0134491 -0.0129775 -0.0134665 0.0130211c0.00716992,0.00745812 0.0190208,0.00767645 0.0264527,0.000489057 0.000943181,-0.000908249 0.0017641,-0.0018951 0.00248022,-0.00295181l0.0789478 -0.0950692 0.101331 0.0681274 -3.49326e-005 4.36658e-005c0.00761532,0.00512637 0.017641,0.00388626 0.0238153,-0.00250642l0.159712 -0.140394 0 0.0469757c0,0.0103575 0.00838383,0.0187676 0.0187064,0.0187676 0.0103313,0 0.0187064,-0.00841003 0.0187064,-0.0187676l0 -0.0929645c0,-0.0103575 -0.0083751,-0.0187676 -0.0187064,-0.0187676l-0.0954447 0c-0.0103226,0 -0.0187064,0.00841003 -0.0187064,0.0187676 0,0.0103575 0.00838383,0.0187676 0.0187064,0.0187676l0.0511327 0 -0.14904 0.131006 -0.102091 -0.0686252c-0.00792098,-0.00633154 -0.0195099,-0.0051875 -0.0260248,0.00266361l0.0143748 0.0120081 -0.0143224 -0.011947 -0.0775068 0.0933575 -0.0653502 -0.0680226z"/>
   </g>
  </g>
 </g>
</svg>
