<?xml version="1.0" encoding="UTF-8"?>
<!DOCTYPE svg PUBLIC "-//W3C//DTD SVG 1.1//EN" "http://www.w3.org/Graphics/SVG/1.1/DTD/svg11.dtd">
<!-- Creator: CorelDRAW -->
<svg xmlns="http://www.w3.org/2000/svg" xml:space="preserve" width="10.2572mm" height="10.1536mm" style="shape-rendering:geometricPrecision; text-rendering:geometricPrecision; image-rendering:optimizeQuality; fill-rule:evenodd; clip-rule:evenodd"
viewBox="0 0 0.107051 0.10597"
 xmlns:xlink="http://www.w3.org/1999/xlink">
 <defs>
  <style type="text/css">
   <![CDATA[
    .fil0 {fill:#126C6E;fill-rule:nonzero}
   ]]>
  </style>
 </defs>
 <g id="Layer_x0020_1">
  <metadata id="CorelCorpID_0Corel-Layer"/>
  <g id="_624915080">
   <path id="_624915128" class="fil0" d="M0.0906594 0.0585665l0 0.0444572c0,0.00162708 -0.00131815,0.00294628 -0.00294523,0.00294628l-0.0251013 0c-0.00162604,0 -0.00294523,-0.0013192 -0.00294523,-0.00294628l0 -0.0285203 -0.012284 0 0 0.0285203c0,0.00162708 -0.0013192,0.00294628 -0.00294628,0.00294628l-0.0251002 0c-0.00162708,0 -0.00294628,-0.0013192 -0.00294628,-0.00294628l0 -0.0444572 -0.0134445 0c-0.00162708,0 -0.00294628,-0.0013192 -0.00294628,-0.00294628 0,-0.000868333 0.000375721,-0.001649 0.000974787,-0.00218857l0.0504311 -0.0525206 -5.21835e-006 -5.21835e-006c0.00112612,-0.00117308 0.0029922,-0.0012117 0.00416528,-8.45372e-005 8.14062e-005,7.82752e-005 0.000157594,0.000159681 0.000228564,0.000245262l0.050427 0.0525174 -0.00211656 0.0020362 0.00212491 -0.00203933c0.00112612,0.00117204 0.00108855,0.00303812 -8.45372e-005,0.00416528 -0.000571931,0.000547926 -0.00130667,0.000820324 -0.00204037,0.00081928l0 1.04367e-006 -0.0134456 0zm-0.00589151 0.0415109l0 -0.0444572c0,-0.00162604 0.0013192,-0.00294523 0.00294628,-0.00294523l0.009488 0 -0.0436765 -0.0454862 -0.0436775 0.0454862 0.00948904 0c0.00162708,0 0.00294628,0.0013192 0.00294628,0.00294523l0 0.0444572 0.0192077 0 0 -0.0285203c0,-0.00162708 0.0013192,-0.00294628 0.00294628,-0.00294628l0.0181755 0c0.00162708,0 0.00294628,0.0013192 0.00294628,0.00294628l0 0.0285203 0.0192087 0z"/>
  </g>
 </g>
</svg>
