<?xml version="1.0" encoding="UTF-8"?>
<!DOCTYPE svg PUBLIC "-//W3C//DTD SVG 1.1//EN" "http://www.w3.org/Graphics/SVG/1.1/DTD/svg11.dtd">
<!-- Creator: CorelDRAW -->
<svg xmlns="http://www.w3.org/2000/svg" xml:space="preserve" width="112.625mm" height="17.992mm" style="shape-rendering:geometricPrecision; text-rendering:geometricPrecision; image-rendering:optimizeQuality; fill-rule:evenodd; clip-rule:evenodd"
viewBox="0 0 93.4317 14.9259"
 xmlns:xlink="http://www.w3.org/1999/xlink">
 <defs>
  <style type="text/css">
   <![CDATA[
    .fil2 {fill:url(#id2)}
    .fil0 {fill:url(#id3)}
    .fil1 {fill:url(#id4)}
    .fil4 {fill:url(#id5)}
    .fil3 {fill:url(#id6);fill-rule:nonzero}
   ]]>
  </style>
    <clipPath id="id0">
     <path d="M0.568597 0.501401l21.8442 0 0 14.4245 -21.8442 0 0 -14.4245z"/>
    </clipPath>
    <clipPath id="id1">
     <path d="M32.6685 3.87167l60.7632 0 0 7.63674 -60.7632 0 0 -7.63674z"/>
    </clipPath>
  <linearGradient id="id2" gradientUnits="userSpaceOnUse" x1="1.76461" y1="5.89411" x2="21.3966" y2="13.7806">
   <stop offset="0" style="stop-color:#61FCFF"/>
   <stop offset="0.819608" style="stop-color:#00A0A3"/>
   <stop offset="0.909804" style="stop-color:#00A1A4"/>
   <stop offset="1" style="stop-color:#24FBFF"/>
  </linearGradient>
  <linearGradient id="id3" gradientUnits="userSpaceOnUse" x1="1.98237" y1="11.2673" x2="15.7427" y2="1.21708">
   <stop offset="0" style="stop-color:#61FCFF"/>
   <stop offset="0.470588" style="stop-color:#00A0A3"/>
   <stop offset="0.568627" style="stop-color:#00A1A4"/>
   <stop offset="1" style="stop-color:#24FBFF"/>
  </linearGradient>
  <linearGradient id="id4" gradientUnits="userSpaceOnUse" x1="15.1699" y1="3.11409" x2="18.7363" y2="9.8694">
   <stop offset="0" style="stop-color:#C14B00"/>
   <stop offset="0.321569" style="stop-color:#FFAF54"/>
   <stop offset="0.670588" style="stop-color:#FDAB51"/>
   <stop offset="1" style="stop-color:#C04A00"/>
  </linearGradient>
  <linearGradient id="id5" gradientUnits="userSpaceOnUse" x1="37.5465" y1="9.10145" x2="37.5465" y2="4.80321">
   <stop offset="0" style="stop-color:#9EFDFF"/>
   <stop offset="0.478431" style="stop-color:#00D2D6"/>
   <stop offset="0.580392" style="stop-color:#0BD6DA"/>
   <stop offset="1" style="stop-color:#73FDFF"/>
  </linearGradient>
  <linearGradient id="id6" gradientUnits="userSpaceOnUse" xlink:href="#id5" x1="67.796" y1="9.05889" x2="67.796" y2="5.37886">
  </linearGradient>
 </defs>
 <g id="Layer_x0020_1">
  <metadata id="CorelCorpID_0Corel-Layer"/>
  <g id="_628279072">
   <g style="clip-path:url(#id0)">
    <image id="_451586120" transform="matrix(1 0 0 1 -55.7438 -337.397)" x="56.3124" y="337.898" width="21.8442" height="14.4245" xlink:href="logo-AlphaProSystem Topo Tela_Images\logo-AlphaProSystem Topo Tela_ImgID1.png"/>
   </g>
  </g>
  <g id="_628278352">
   <path id="_628279432" class="fil0" d="M-0 12.627c10.0896,-4.0828 12.2946,-12.6489 15.2476,-12.6269 1.46762,0.0109505 1.84665,2.06533 2.47755,3.74524 -2.95996,-3.88801 -4.88451,7.4266 -17.7251,8.8817z"/>
   <path id="_628279624" class="fil1" d="M17.7251 3.74524c0.619451,1.37495 1.23882,2.75007 1.85827,4.12503 0.0217351,1.61072 -0.683826,2.75737 -2.47789,2.01995 -1.02653,-1.96753 -1.77772,-3.55535 -2.80433,-5.52287 1.37081,-1.49682 2.45142,-2.01149 3.42394,-0.622105z"/>
   <path id="_628278664" class="fil2" d="M19.5833 7.87018c0.636623,1.66838 2.02535,4.74572 0.877451,5.52287 -1.54377,1.04519 -9.00962,-7.5824 -18.9081,-7.6457 5.42681,-0.510858 12.1756,2.99687 15.5542,4.16534 1.86126,0.643674 2.45632,-0.342452 2.47648,-2.04252z"/>
  </g>
  <g id="_624940432">
   <g style="clip-path:url(#id1)">
    <image id="_449449072" transform="matrix(1 0 0 1 -23.6439 -340.814)" x="56.3124" y="344.686" width="60.7632" height="7.63674" xlink:href="logo-AlphaProSystem Topo Tela_Images\logo-AlphaProSystem Topo Tela_ImgID2.png"/>
   </g>
  </g>
  <g id="_624940552">
   <path id="_624940768" class="fil3" d="M43.3232 9.18806l0.920922 0 1.37338 -5.14168 -0.920922 0 -1.37338 5.14168zm3.77477 -0.71618c-0.156626,-0.00116142 -0.287119,-0.0296991 -0.3909,-0.085862 -0.105772,-0.0550014 -0.183753,-0.132485 -0.238174,-0.231537 -0.0544207,-0.0990524 -0.0832903,-0.213618 -0.0902588,-0.34378 -0.00564117,-0.130162 0.0117801,-0.270942 0.0516831,-0.420184 0.039903,-0.149159 0.0976421,-0.28994 0.173134,-0.421263 0.0764877,-0.130162 0.166663,-0.245889 0.274592,-0.346103 0.107265,-0.0991353 0.227057,-0.17778 0.362611,-0.235021 0.133812,-0.0561629 0.279653,-0.0849494 0.436859,-0.0861109 0.156791,0.00116142 0.288281,0.029948 0.392476,0.0861109 0.104777,0.0572413 0.184748,0.135886 0.239335,0.235021 0.0540059,0.100214 0.0851983,0.215941 0.0919179,0.346103 0.00547526,0.131323 -0.0107846,0.272104 -0.0506876,0.421263 -0.039903,0.149242 -0.0987205,0.290023 -0.174047,0.420184 -0.0763218,0.130162 -0.168903,0.244727 -0.276335,0.34378 -0.107431,0.0990524 -0.229297,0.176536 -0.363856,0.231537 -0.134144,0.0561629 -0.280897,0.0847006 -0.438352,0.085862zm-0.373479 -2.26286l0.159114 -0.623101 -0.892218 0 -1.27773 4.78363 0.920839 0 0.47054 -1.76154c0.0423918,0.134807 0.110335,0.250617 0.20217,0.348508 0.0911713,0.0990524 0.204078,0.175374 0.340793,0.229131 0.136881,0.0536741 0.295083,0.079889 0.473195,0.0812163 0.256176,-0.00132733 0.498995,-0.0502728 0.727462,-0.144514 0.229878,-0.0941578 0.438933,-0.226642 0.628161,-0.396209 0.189145,-0.169567 0.351993,-0.368916 0.488708,-0.595559 0.136715,-0.226891 0.240828,-0.473942 0.313085,-0.740072 0.0705147,-0.268371 0.0987205,-0.516831 0.0834562,-0.744635 -0.0150984,-0.228053 -0.0714272,-0.427402 -0.169069,-0.59672 -0.0969784,-0.170728 -0.234026,-0.303213 -0.410064,-0.39762 -0.17695,-0.0942408 -0.391315,-0.143186 -0.64326,-0.144348 -0.188233,0.00116142 -0.368252,0.0297821 -0.539811,0.0884337 -0.171143,0.0570754 -0.330921,0.138292 -0.479251,0.243317 -0.146919,0.105108 -0.27957,0.228053 -0.396127,0.370078zm2.64513 2.97904l0.920922 0 0.541387 -2.02667c0.0721738,-0.266131 0.187818,-0.46772 0.3466,-0.607422 0.157206,-0.138458 0.348094,-0.207645 0.571003,-0.208972 0.139951,0.00132733 0.248958,0.029865 0.326027,0.0883507 0.0774832,0.0584857 0.125848,0.139702 0.143933,0.245889 0.018002,0.10627 0.00730034,0.230376 -0.0311924,0.374723l-0.57009 2.13411 0.920922 0 0.633139 -2.37029c0.0687725,-0.261485 0.0819629,-0.489538 0.0385757,-0.682748 -0.0435532,-0.193293 -0.141527,-0.343863 -0.291267,-0.451211 -0.149989,-0.10627 -0.34967,-0.161022 -0.60037,-0.162184 -0.240745,0.00116142 -0.464567,0.055914 -0.67271,0.162184 -0.206815,0.106187 -0.387084,0.255429 -0.539064,0.446316l0.556485 -2.08375 -0.920922 0 -1.37338 5.14168zm4.91197 -1.12425c0.0389075,-0.145675 0.12029,-0.254268 0.244396,-0.327105 0.124272,-0.0728375 0.295664,-0.118133 0.515255,-0.138541l0.520398 -0.0501069 -0.0669475 0.250783c-0.0410644,0.149159 -0.103615,0.275588 -0.188233,0.383019 -0.0842028,0.10627 -0.181181,0.188647 -0.289276,0.245889 -0.10685,0.0573243 -0.216853,0.085862 -0.327769,0.0870234 -0.121036,-0.00116142 -0.215775,-0.0213203 -0.282308,-0.0608085 -0.067777,-0.0405667 -0.110584,-0.0941578 -0.130328,-0.16235 -0.0191634,-0.0667815 -0.0178361,-0.143186 0.00481159,-0.227804zm2.3741 -1.2175c0.0609744,-0.232698 0.0725886,-0.431965 0.0354233,-0.60037 -0.0364188,-0.167078 -0.112658,-0.304209 -0.226725,-0.411806 -0.114649,-0.106104 -0.257752,-0.184914 -0.429476,-0.236183 -0.173134,-0.0512683 -0.364022,-0.0763218 -0.574487,-0.0763218 -0.175872,-0.00141029 -0.359957,0.0153473 -0.552835,0.0512683 -0.192298,0.0345107 -0.388577,0.0967295 -0.588424,0.184914l-0.446897 0.845098c0.200759,-0.0967295 0.398698,-0.169567 0.594065,-0.219674 0.195201,-0.0489455 0.387416,-0.0739989 0.576644,-0.0739989 0.167825,0 0.309601,0.0215692 0.425577,0.0632973 0.115976,0.0429725 0.198271,0.104942 0.24705,0.188647 0.0493603,0.0822948 0.0590664,0.184914 0.0277081,0.306697l-0.0211544 0.0786446 -0.482652 0.0431384c-0.148164,0.0118631 -0.300558,0.0296991 -0.456437,0.0524297 -0.155298,0.023892 -0.308439,0.0584857 -0.458096,0.10627 -0.149491,0.0477841 -0.289857,0.114566 -0.42035,0.198105 -0.129747,0.0847006 -0.244976,0.194455 -0.343531,0.328267 -0.0991353,0.134807 -0.175208,0.29948 -0.229048,0.496423 -0.0389075,0.145509 -0.0486136,0.28405 -0.0306117,0.412967 0.0191634,0.128834 0.0648735,0.242239 0.138458,0.341291 0.0735841,0.0990524 0.174047,0.176784 0.299148,0.234026 0.126843,0.0559969 0.278408,0.0847006 0.455442,0.085862 0.235851,-0.00116142 0.44781,-0.0596471 0.636623,-0.174213 0.187237,-0.113404 0.350831,-0.275837 0.488708,-0.484643l-0.153556 0.601615 0.863846 0 0.62559 -2.34175zm1.31605 2.34175l0.956594 0 0.495428 -1.85478 0.899601 0c0.274012,-0.00116142 0.523634,-0.0406496 0.750359,-0.119294 0.226891,-0.0788935 0.427734,-0.188565 0.603689,-0.330589 0.175872,-0.142191 0.323953,-0.309186 0.44557,-0.501318 0.120207,-0.192132 0.211212,-0.403427 0.272021,-0.63148 0.0557481,-0.208806 0.0745796,-0.403427 0.0571584,-0.583447 -0.0176701,-0.179107 -0.0731693,-0.336645 -0.167659,-0.47278 -0.0944897,-0.135969 -0.228136,-0.241077 -0.401851,-0.317399 -0.173466,-0.0763218 -0.389324,-0.114649 -0.645914,-0.11581l-1.94886 0 -1.31614 4.9269zm2.04111 -4.0604l0.920839 0c0.152229,0.00116142 0.268039,0.0311094 0.349919,0.0895951 0.0805526,0.0584027 0.131074,0.13713 0.150984,0.236183 0.0197441,0.0990524 0.0127756,0.210134 -0.01991,0.333078 -0.0348425,0.129996 -0.089844,0.24705 -0.165004,0.34967 -0.0750774,0.103864 -0.170563,0.18508 -0.286953,0.245889 -0.115727,0.0596471 -0.252443,0.0906736 -0.409898,0.091835l-0.899601 0 0.359625 -1.34625zm4.73494 1.48944l0.418028 -0.923825c-0.0367506,-0.0535911 -0.0890144,-0.0941578 -0.157372,-0.122696 -0.0676111,-0.0276252 -0.143684,-0.041977 -0.226974,-0.041977 -0.171558,0.00132733 -0.329345,0.0394053 -0.47361,0.112243 -0.144431,0.0728375 -0.27592,0.173051 -0.393804,0.298401 -0.119294,0.125267 -0.225398,0.268619 -0.319888,0.427319l0.201174 -0.780639 -0.870898 0 -0.962152 3.60214 0.920839 0 0.476347 -1.78311c0.0608085,-0.223241 0.139204,-0.401104 0.236432,-0.533589 0.0973932,-0.132485 0.208143,-0.226725 0.332829,-0.283967 0.126429,-0.0584857 0.26107,-0.0860279 0.406994,-0.0847006 0.079806,0 0.155298,0.0107016 0.226559,0.0296991 0.071842,0.0204078 0.133065,0.0489455 0.185495,0.0847006zm2.29762 -0.343614c0.163843,0.00116142 0.299978,0.0308605 0.409151,0.0895121 0.109007,0.0596471 0.191136,0.139702 0.248212,0.242239 0.0571584,0.102537 0.0886826,0.220835 0.0944897,0.354481 0.0073833,0.132485 -0.00887655,0.274509 -0.0487796,0.423669 -0.039903,0.149159 -0.0993012,0.29135 -0.17778,0.424996 -0.0774002,0.133646 -0.172305,0.252857 -0.28463,0.356804 -0.112243,0.103864 -0.237344,0.184914 -0.378125,0.244727 -0.140946,0.0596471 -0.293009,0.0895121 -0.45735,0.0906736 -0.164009,-0.00116142 -0.299978,-0.0310265 -0.408985,-0.0906736 -0.109007,-0.059813 -0.190721,-0.140863 -0.247631,-0.244727 -0.0564947,-0.103947 -0.0879359,-0.223158 -0.093743,-0.356804 -0.00713443,-0.133646 0.00954022,-0.275837 0.0494432,-0.424996 0.03982,-0.149159 0.0988865,-0.291184 0.177116,-0.423669 0.0774832,-0.133646 0.172139,-0.251945 0.283884,-0.354481 0.112077,-0.102537 0.236846,-0.182592 0.377544,-0.242239 0.14078,-0.0586516 0.292594,-0.0883507 0.457184,-0.0895121zm0.214199 -0.801959c-0.303628,0.00116142 -0.588507,0.0512683 -0.852232,0.147749 -0.264886,0.0967295 -0.501816,0.231786 -0.713525,0.404588 -0.21312,0.174462 -0.393223,0.376051 -0.540557,0.607588 -0.148744,0.231537 -0.25966,0.48232 -0.331668,0.751935 -0.0728375,0.272104 -0.0960659,0.524048 -0.0710954,0.755585 0.0233943,0.232698 0.0952363,0.435615 0.215526,0.60991 0.119045,0.173051 0.283801,0.30902 0.497004,0.40575 0.212208,0.0967295 0.470125,0.146836 0.773173,0.147998 0.303794,-0.00116142 0.588424,-0.0512683 0.852149,-0.147998 0.265135,-0.0967295 0.502313,-0.232698 0.715268,-0.40575 0.211876,-0.174296 0.392145,-0.377212 0.540059,-0.60991 0.148662,-0.231537 0.259826,-0.483482 0.332663,-0.755585 0.0720079,-0.269615 0.0950704,-0.520398 0.0700999,-0.751935 -0.0240579,-0.231537 -0.0960659,-0.433126 -0.214945,-0.607588 -0.120456,-0.172802 -0.28546,-0.307859 -0.498829,-0.404588 -0.212208,-0.0964807 -0.469877,-0.146588 -0.77309,-0.147749zm6.86664 -0.959746c-0.0796401,-0.0715102 -0.179107,-0.131323 -0.298401,-0.179107 -0.119294,-0.0476181 -0.251364,-0.0835391 -0.394799,-0.107431 -0.142357,-0.0236432 -0.290272,-0.0357551 -0.441256,-0.0357551 -0.290686,0.00116142 -0.559638,0.0371654 -0.811168,0.109754 -0.249954,0.0716761 -0.47361,0.174462 -0.672046,0.306946 -0.199266,0.13124 -0.364851,0.287451 -0.49999,0.468881 -0.135139,0.180269 -0.230956,0.379535 -0.290189,0.596886 -0.0629655,0.239833 -0.0761558,0.440343 -0.0407326,0.601532 0.0352573,0.162184 0.105523,0.295996 0.211876,0.400938 0.105357,0.103864 0.234855,0.189726 0.384346,0.257918l0.748783 0.350831c0.108178,0.0489455 0.194786,0.0990524 0.258664,0.149159 0.0652883,0.0501069 0.107431,0.10627 0.128337,0.169567 0.0201589,0.0631314 0.0189975,0.138458 -0.00423088,0.225481 -0.0355892,0.129 -0.0960659,0.23527 -0.183753,0.318726 -0.0867745,0.0835391 -0.195948,0.145509 -0.328184,0.186076 -0.132236,0.0406496 -0.282722,0.0610574 -0.45287,0.0610574 -0.149906,0 -0.299563,-0.0192464 -0.452372,-0.0573243 -0.15198,-0.0370824 -0.295083,-0.0895121 -0.429061,-0.157538 -0.134973,-0.0693532 -0.248792,-0.15057 -0.345439,-0.243566l-0.256342 0.959497c0.0547526,0.0573243 0.128005,0.108841 0.216687,0.155215 0.0904247,0.0454612 0.190473,0.0847006 0.302052,0.116971 0.110335,0.0321879 0.226145,0.0572413 0.3466,0.0739989 0.120207,0.018002 0.239086,0.0263808 0.355892,0.0263808 0.39397,-0.00132733 0.742146,-0.0656201 1.04652,-0.189726 0.303462,-0.125516 0.555324,-0.302052 0.755585,-0.530104 0.200759,-0.226642 0.341955,-0.496506 0.425743,-0.805526 0.0584857,-0.223158 0.0693532,-0.415456 0.0333493,-0.575317 -0.0364188,-0.161188 -0.111745,-0.298319 -0.227555,-0.412967 -0.114649,-0.113404 -0.262398,-0.211295 -0.441505,-0.293673l-0.702243 -0.336562c-0.0979739,-0.0441339 -0.177365,-0.0894292 -0.237178,-0.137213 -0.0602278,-0.0465397 -0.100131,-0.101375 -0.12087,-0.16235 -0.0203248,-0.0619699 -0.0183338,-0.135969 0.00506046,-0.223158 0.0489455,-0.179107 0.159944,-0.313915 0.331253,-0.403427 0.172719,-0.0895951 0.399694,-0.133646 0.682997,-0.133646 0.0894292,-0.00116142 0.186988,0.0083788 0.293341,0.0287036 0.10685,0.0190804 0.216687,0.0525127 0.327769,0.100297 0.110584,0.0489455 0.216522,0.115727 0.318892,0.200428l0.456437 -0.880853zm-0.0371654 1.07415l0.359127 3.57352c-0.065786,0.129996 -0.155464,0.23021 -0.270693,0.300724 -0.113985,0.0705147 -0.260407,0.10627 -0.437938,0.107431 -0.0487796,0 -0.0989694,-0.00356721 -0.152809,-0.0118631 -0.0522638,-0.0083788 -0.103947,-0.0204078 -0.154469,-0.035921 -0.0506046,-0.0155962 -0.0953192,-0.0357551 -0.135222,-0.0596471l-0.202667 0.75907c0.031939,0.0357551 0.0772343,0.0667815 0.135886,0.091835 0.0584857,0.0262978 0.125848,0.0454612 0.200842,0.0596471 0.0749115,0.0131904 0.151565,0.0204078 0.231122,0.0204078 0.19769,0 0.378954,-0.0287036 0.542548,-0.0847006 0.165004,-0.0560799 0.317814,-0.138458 0.459922,-0.24705 0.141527,-0.107431 0.275505,-0.238754 0.402763,-0.393887 0.125433,-0.154054 0.249954,-0.330589 0.371571,-0.527616l2.19085 -3.55195 -0.949542 0 -1.43634 2.49207 -0.141112 -2.49207 -1.01384 0zm6.26983 0.179024c-0.0642928,-0.0572413 -0.144016,-0.106187 -0.240662,-0.145675 -0.0966466,-0.0392393 -0.203082,-0.067943 -0.318892,-0.0881848 -0.117137,-0.0204078 -0.236846,-0.0310265 -0.361699,-0.0310265 -0.322957,0.00116142 -0.61074,0.0501069 -0.863597,0.145675 -0.252691,0.0953192 -0.461581,0.227804 -0.627498,0.398532 -0.165751,0.170728 -0.279487,0.368916 -0.340793,0.594397 -0.0477011,0.182592 -0.0577391,0.336645 -0.0287036,0.463074 0.0294502,0.126429 0.0888485,0.23386 0.181264,0.319888 0.0924987,0.085862 0.208557,0.158699 0.350665,0.219674l0.524131 0.229048c0.0811333,0.0345107 0.144099,0.0667815 0.18956,0.0967295 0.045876,0.0285377 0.0753263,0.0607256 0.0886826,0.0955681 0.0141029,0.0356721 0.0133563,0.0786446 -0.000165917,0.129913 -0.027874,0.103947 -0.0931623,0.183919 -0.197109,0.238754 -0.102868,0.0549185 -0.242487,0.0834562 -0.417281,0.0834562 -0.107514,0.00141029 -0.218844,-0.00945726 -0.334405,-0.0308605 -0.11581,-0.0215692 -0.230459,-0.059813 -0.345439,-0.114566 -0.115229,-0.05384 -0.226974,-0.130162 -0.334405,-0.226891l-0.221914 0.830746c0.0441339,0.0535911 0.101707,0.100214 0.175623,0.139619 0.0741648,0.0394882 0.156874,0.0728375 0.249954,0.0979739 0.0929964,0.0262149 0.19039,0.0452123 0.292428,0.0584027 0.102454,0.0130245 0.203331,0.0190804 0.304374,0.0190804 0.291765,-0.00116142 0.557647,-0.0477841 0.796401,-0.139702 0.23892,-0.0929964 0.439763,-0.225481 0.603937,-0.398532 0.163594,-0.17189 0.278408,-0.379535 0.344277,-0.621773 0.0462908,-0.173051 0.0547526,-0.319888 0.0255512,-0.442832 -0.0292843,-0.121783 -0.0931623,-0.225564 -0.189975,-0.312753 -0.095817,-0.0871893 -0.222495,-0.164755 -0.378125,-0.232698l-0.509863 -0.229214c-0.0801378,-0.0345937 -0.139951,-0.067943 -0.180601,-0.0990524 -0.0404837,-0.0311094 -0.0660349,-0.0644587 -0.0755751,-0.100214 -0.00871064,-0.0345937 -0.00696851,-0.0763218 0.00663667,-0.122944 0.0261319,-0.097891 0.0915861,-0.173051 0.19628,-0.226891 0.104777,-0.0535911 0.249622,-0.079806 0.435698,-0.0809674 0.0869404,0 0.177365,0.00829584 0.27144,0.0262149 0.0943237,0.0166746 0.185329,0.0452123 0.275173,0.0835391 0.0904247,0.0394053 0.171973,0.0906736 0.246304,0.155132l0.408321 -0.780639zm1.75391 -0.179024l0.208557 -0.780473 -0.278408 0 -1.48172 1.32468 -0.0535911 0.200676 0.48539 0 -0.462908 1.733c-0.0647076,0.242156 -0.0735841,0.449801 -0.0287036,0.624096 0.0451294,0.174379 0.147334,0.308025 0.306946,0.401021 0.159363,0.0942408 0.376548,0.140863 0.652136,0.142025 0.0846176,0 0.171724,-0.00605597 0.262149,-0.0189975 0.0904247,-0.0132733 0.17637,-0.0322708 0.257918,-0.0573243 0.0817141,-0.0250534 0.152229,-0.0573243 0.211212,-0.0955681l0.1991 -0.744718c-0.0741648,0.0322708 -0.151233,0.0573243 -0.229463,0.0739989 -0.0783957,0.0178361 -0.149657,0.0262149 -0.211627,0.0262149 -0.200013,0.00116142 -0.337724,-0.0405667 -0.412055,-0.12759 -0.0741648,-0.0871893 -0.0853642,-0.228053 -0.0331004,-0.423835l0.409317 -1.53233 0.977997 0 0.198851 -0.744884 -0.977997 0zm3.60247 3.43017l0.216273 -0.809177c-0.0948215,0.0573243 -0.203912,0.108593 -0.326276,0.152892 -0.123691,0.0440509 -0.252857,0.0774832 -0.389158,0.102537 -0.135139,0.0250534 -0.270693,0.0382438 -0.405086,0.0382438 -0.369829,-0.00116142 -0.640688,-0.0692703 -0.813242,-0.202916 -0.172139,-0.134807 -0.252277,-0.329428 -0.240082,-0.584857l2.44147 0c0.0178361,-0.0394882 0.0350085,-0.0823777 0.0516831,-0.131323 0.0178361,-0.0489455 0.0336811,-0.0990524 0.0497751,-0.150321 0.0145177,-0.0501069 0.02804,-0.0967295 0.039903,-0.140863 0.0650394,-0.243566 0.0894292,-0.472531 0.0756581,-0.688555 -0.0136881,-0.21619 -0.0683577,-0.40716 -0.161105,-0.572994 -0.0936601,-0.165917 -0.227638,-0.295996 -0.401187,-0.391398 -0.172139,-0.0944067 -0.38642,-0.142191 -0.639361,-0.144514 -0.291931,0.00232284 -0.563786,0.0524297 -0.816477,0.152892 -0.25153,0.0990524 -0.478504,0.236183 -0.68084,0.410395 -0.20134,0.174462 -0.372317,0.373728 -0.512683,0.60037 -0.141029,0.22573 -0.245557,0.465646 -0.313334,0.719664 -0.0739989,0.276998 -0.0979739,0.531266 -0.071842,0.762803 0.0275422,0.231537 0.105689,0.433126 0.237593,0.602693 0.13066,0.170728 0.316569,0.303213 0.55549,0.397454 0.240331,0.0929964 0.537156,0.14078 0.889978,0.141942 0.0975591,0 0.200345,-0.00580709 0.309186,-0.0166746 0.108841,-0.0118631 0.218015,-0.0285377 0.329013,-0.0512683 0.109339,-0.0227306 0.21312,-0.0501069 0.311343,-0.0835391 0.0988865,-0.0322708 0.186408,-0.0705147 0.26331,-0.113487zm-0.214945 -1.94778l-1.58484 0c0.0705147,-0.165917 0.158617,-0.307859 0.264306,-0.427319 0.105357,-0.119294 0.225564,-0.212291 0.359376,-0.276749 0.133812,-0.0645417 0.278077,-0.0967295 0.433126,-0.0979739 0.137545,0.00124438 0.250037,0.0345937 0.337309,0.100297 0.0860279,0.0656201 0.145841,0.157455 0.178195,0.276915 0.031939,0.120456 0.0373313,0.261319 0.0125267,0.42483zm0.940085 2.11975l0.920922 0 0.550844 -2.06243c0.0720079,-0.264969 0.17778,-0.460751 0.319307,-0.589503 0.141195,-0.127839 0.313085,-0.192298 0.517412,-0.191136 0.178112,0.00132733 0.298153,0.059813 0.359542,0.173051 0.0599789,0.113404 0.0637121,0.273514 0.00887655,0.478587l-0.585355 2.19143 0.920922 0 0.550927 -2.06243c0.0720079,-0.264969 0.177946,-0.460751 0.319473,-0.589503 0.141112,-0.127839 0.313085,-0.192298 0.517163,-0.191136 0.178112,0.00132733 0.298401,0.059813 0.359791,0.173051 0.0599789,0.113404 0.0634632,0.273514 0.00871064,0.478587l-0.585355 2.19143 0.920922 0 0.644753 -2.41343c0.0660349,-0.251779 0.0795571,-0.471453 0.0400689,-0.657529 -0.0394882,-0.186242 -0.129913,-0.329428 -0.270113,-0.43213 -0.140366,-0.10262 -0.328598,-0.155049 -0.565196,-0.156377 -0.240496,0.00132733 -0.466807,0.059813 -0.676526,0.173051 -0.211461,0.114566 -0.398864,0.276998 -0.562873,0.485805 -0.0275422,-0.208806 -0.113902,-0.371239 -0.258167,-0.485805 -0.145924,-0.113238 -0.343282,-0.171724 -0.593982,-0.173051 -0.226394,0.00132733 -0.440177,0.0573243 -0.63878,0.169567 -0.199847,0.110915 -0.372152,0.269781 -0.518573,0.475103l0.149657 -0.587346 -0.892218 0 -0.962152 3.60214z"/>
   <path id="_624940480" class="fil4" d="M42.7622 8.67289c0.274841,0.675945 0.342867,1.3757 -0.0195782,1.62109 -0.537654,0.363607 -2.44172,-1.50379 -5.17909,-2.81561 -1.25392,1.07108 -2.99555,2.12025 -5.57564,2.41268 1.92173,-0.777735 3.29926,-1.86474 4.34827,-2.93407 -1.0851,-0.400606 -2.2709,-0.673705 -3.53229,-0.681835 1.17287,-0.110418 2.46337,0.136384 3.69995,0.50812 1.7301,-1.81936 2.53944,-3.53619 3.4991,-3.52922 0.504221,0.00373313 0.748285,0.473361 0.97584,1.03292l1.78344 4.38593zm-4.92068 -1.43933c1.24728,0.459258 2.36224,0.962733 3.1384,1.23119l0.00754922 0.00265467c-0.538483,-1.03242 -0.942989,-1.88473 -1.48205,-2.91773l0.00223988 -0.00572413c-0.445072,0.45428 -0.977499,1.06618 -1.66614,1.68961z"/>
  </g>
 </g>
</svg>
