<?xml version="1.0" encoding="UTF-8"?>
<!DOCTYPE svg PUBLIC "-//W3C//DTD SVG 1.1//EN" "http://www.w3.org/Graphics/SVG/1.1/DTD/svg11.dtd">
<!-- Creator: CorelDRAW -->
<svg xmlns="http://www.w3.org/2000/svg" xml:space="preserve" width="10.6224mm" height="9.9219mm" style="shape-rendering:geometricPrecision; text-rendering:geometricPrecision; image-rendering:optimizeQuality; fill-rule:evenodd; clip-rule:evenodd"
viewBox="0 0 0.098789 0.0922743"
 xmlns:xlink="http://www.w3.org/1999/xlink">
 <defs>
  <style type="text/css">
   <![CDATA[
    .fil0 {fill:#126C6E;fill-rule:nonzero}
   ]]>
  </style>
 </defs>
 <g id="Layer_x0020_1">
  <metadata id="CorelCorpID_0Corel-Layer"/>
  <g id="_624917888">
   <g>
    <path id="_624918392" class="fil0" d="M0.0358741 0.0458689c-0.00148894,0.00147406 -0.00150289,0.00387906 -2.79002e-005,0.00537079 0.00147499,0.00148987 0.00387906,0.00150382 0.00536986,2.88302e-005l0.00294068 -0.0029072 0 0.0439131 0.0119543 0 0 -0.0439149 0.00295277 0.00292766c0.00148057,0.00147313 0.00387999,0.00146848 0.00535498,-1.39501e-005 0.00147406,-0.00148336 0.00146848,-0.00388092 -1.48801e-005,-0.00535591l-0.0113991 -0.011308c-5.30104e-005,-5.95204e-005 -0.000107881,-0.000119971 -0.000166471,-0.000177631 -0.00147313,-0.0014908 -0.00387906,-0.00150289 -0.00536986,-2.88302e-005l-0.0115944 0.0114661z"/>
    <path id="_624918512" class="fil0" d="M0.0346167 0.0636376c-0.00114484,0.000392463 -0.00233339,0.000711455 -0.00355449,0.000947677 -0.00166192,0.000321782 -0.00336848,0.000491044 -0.00509923,0.000491044 -0.00714617,0 -0.0136274,-0.00281606 -0.0183276,-0.00736658 -0.00471792,-0.00456726 -0.00763536,-0.0108811 -0.00763536,-0.0178552 0,-0.00694622 0.00289697,-0.0132396 0.00758514,-0.017805 0.00430872,-0.00419805 0.0101427,-0.00692855 0.0166285,-0.00734798 0.00238733,-0.00423246 0.00588787,-0.00780834 0.010125,-0.0103677 0.00453936,-0.00274259 0.00992968,-0.00433383 0.0157041,-0.00433383 0.0070355,0 0.0135065,0.00236873 0.0185676,0.00631103 0.00460167,0.00358518 0.0080334,0.00847794 0.0096637,0.014084 0.0054889,0.000230642 0.0104496,0.00234455 0.0141101,0.00564607 0.00395625,0.00356844 0.00640496,0.00851793 0.00640496,0.0139985 0,0.0042492 -0.00148243,0.00818778 -0.00400368,0.0114158 -0.00226085,0.00289232 -0.00536056,0.0052006 -0.00897085,0.00663002 -0.000703085,0.00213437 -0.00203299,0.00400275 -0.00378141,0.0054052 -0.0020981,0.00168238 -0.00479512,0.00269702 -0.0077265,0.00269702 -0.00151033,0 -0.00297695,-0.000278072 -0.00434034,-0.000783996l-3.72003e-006 9.30007e-006c-0.000767256,-0.000284582 -0.0015001,-0.000646355 -0.00218924,-0.00107602 -0.00125737,0.000692855 -0.00260123,0.00126109 -0.00400926,0.00168331 -0.00196138,0.000588694 -0.0040539,0.000908617 -0.00621989,0.000908617 -0.00235199,0 -0.00461841,-0.000377583 -0.00672209,-0.00106765 -0.00155683,-0.000509644 -0.00302717,-0.00119785 -0.00438219,-0.00203578 -0.000555214,0.000305972 -0.0011467,0.000569164 -0.00176515,0.000781206l-1.02301e-005 0c-0.00122947,0.000420363 -0.00257612,0.000654725 -0.00397578,0.000654725 -0.00138571,0 -0.00272027,-0.000229712 -0.00394509,-0.000644495 -0.000753306,-0.000254822 -0.00146755,-0.000584974 -0.00212693,-0.000979297zm-0.00453936 -0.00420084c0.00135037,-0.000261332 0.00266168,-0.000654725 0.00391719,-0.00116437l0.0014443 -0.000585904 0.0012118 0.00100627c0.000476163,0.000396183 0.00108067,0.000726335 0.00177445,0.000960697 0.000677975,0.000229712 0.0014443,0.000358053 0.00226364,0.000358053 0.000823986,0 0.00159682,-0.000130201 0.00228503,-0.000365493l-1.86001e-006 -2.79002e-006c0.000695645,-0.000238082 0.00130108,-0.000574744 0.00178003,-0.000979297l0.00160054 -0.00135223 0.00167122 0.00126946c0.00128341,0.000974647 0.00277607,0.00175771 0.00441753,0.00229619 0.00158008,0.000518014 0.00329966,0.000801666 0.00510295,0.000801666 0.00166006,0 0.00324851,-0.000240872 0.0047235,-0.000683555 0.00153358,-0.000460353 0.00294254,-0.00113182 0.00417666,-0.00196882l0.00167122 -0.00113461 0.00151777 0.00132898c0.000608224,0.000532894 0.00133921,0.000966277 0.00215483,0.00126853l0 1.11601e-005c0.000759816,0.000281792 0.00160891,0.000436173 0.00251846,0.000436173 0.00170563,0 0.00325595,-0.000574744 0.0044445,-0.001528 0.00118204,-0.000948607 0.00201532,-0.00227573 0.00228317,-0.00377676l0.000276212 -0.00154567 0.00150754 -0.000485464c0.00320387,-0.00103045 0.00593809,-0.0029258 0.00784554,-0.00536614 0.00181072,-0.00231758 0.00287465,-0.00514573 0.00287465,-0.00819522 0,-0.00393114 -0.00178189,-0.00750515 -0.00466119,-0.0101017 -0.00295463,-0.00266447 -0.00705782,-0.0043143 -0.0116056,-0.0043143 -0.000367353,0 -0.000364563,-5.58004e-006 -0.000450123,-3.72003e-006l-1.11601e-005 0 -0.000455703 1.95301e-005 -0.00223853 0.000109741 -0.000448263 -0.00220133c-0.00106765,-0.00523594 -0.00406878,-0.00983668 -0.00827799,-0.013115 -0.0041562,-0.00323735 -0.00950281,-0.005182 -0.015347,-0.005182 -0.00479233,0 -0.00925171,0.00131224 -0.0129968,0.00357495 -0.00385674,0.00232967 -0.00695645,0.0056563 -0.00887691,0.00958279l-0.000713315 0.00145639 -0.00162472 9.30007e-006c-0.00570373,3.25502e-005 -0.0108643,0.00229433 -0.0145955,0.00592879 -0.00369771,0.00360192 -0.00598552,0.00856815 -0.00598552,0.0140515 0,0.00550471 0.00230735,0.0104905 0.00603574,0.0141017 0.00374514,0.0036261 0.00893458,0.0058702 0.0146774,0.0058702 0.00142198,0 0.00279932,-0.000133921 0.00411435,-0.000389673z"/>
   </g>
  </g>
 </g>
</svg>
