<?xml version="1.0" encoding="UTF-8"?>
<!DOCTYPE svg PUBLIC "-//W3C//DTD SVG 1.1//EN" "http://www.w3.org/Graphics/SVG/1.1/DTD/svg11.dtd">
<!-- Creator: CorelDRAW -->
<svg xmlns="http://www.w3.org/2000/svg" xml:space="preserve" width="13.3652mm" height="16.858mm" style="shape-rendering:geometricPrecision; text-rendering:geometricPrecision; image-rendering:optimizeQuality; fill-rule:evenodd; clip-rule:evenodd"
viewBox="0 0 1.67256 2.10965"
 xmlns:xlink="http://www.w3.org/1999/xlink">
 <defs>
  <style type="text/css">
   <![CDATA[
    .fil1 {fill:#E6E6E6}
    .fil0 {fill:#E6E6E6;fill-rule:nonzero}
   ]]>
  </style>
 </defs>
 <g id="Layer_x0020_1">
  <metadata id="CorelCorpID_0Corel-Layer"/>
  <g id="_624915656">
   <path id="_624916352" class="fil0" d="M0.0433994 0l1.06195 0 0.0159557 0 0.0123641 0.0107122 0.523809 0.453467 0.0150797 0.0130524 0 0.01976 0 1.37478c0,0.0653369 -0.0266804,0.12478 -0.0696168,0.167866l-0.0001752 0.0001752c-0.0429614,0.0430741 -0.102204,0.0698421 -0.167341,0.0698421l-1.39202 0 -0.0433994 0 0 -0.0435246 0 -2.0226 0 -0.0435246 0.0433994 0zm1.046 0.0870492l-1.00262 0 0 1.93554 1.34864 0c0.0413346,0 0.0789274,-0.0169318 0.106158,-0.0441503l0.0001752 -0.0001752c0.0271434,-0.0273186 0.0440252,-0.0650366 0.0440252,-0.106496l0 -1.35502 -0.496378 -0.429702z"/>
   <path id="_624916040" class="fil0" d="M1.15218 0.0431617l0.00357908 0.327511c0.000300342,0.0296463 0.0126269,0.0568022 0.0322993,0.0765497l0 0.0001752c0.0191844,0.0192594 0.0457521,0.0312481 0.0751481,0.0312481l0.365967 0 0 0.0870492 -0.365967 0c-0.053148,0 -0.101328,-0.0218249 -0.136418,-0.0570149l-8.75998e-005 8.75998e-005c-0.0349648,-0.0350775 -0.0568022,-0.0837454 -0.0573779,-0.137394l-0.00357908 -0.327523 0.086436 -0.000688284z"/>
   <path id="_624916760" class="fil0" d="M0.331703 0.590548c-8.75998e-005,-0.0241901 -0.0198101,-0.0437373 -0.0440001,-0.0436497 -0.0241901,0.000100114 -0.0437373,0.0198101 -0.0436497,0.0440001l0.00775884 1.20295 0.0438249 -0.000187714 -0.0440001 0.000287828c0.000150171,0.0242026 0.0198351,0.0437123 0.0440001,0.0437123l0.000275314 0 1.12247 0c0.0243027,0 0.0440001,-0.0196974 0.0440001,-0.0440001 0,-0.0242902 -0.0196974,-0.0439876 -0.0440001,-0.0439876l-1.0792 0 -0.00747101 -1.15912z"/>
   <path id="_624916280" class="fil0" d="M0.122077 0.692276c-0.0172822,0.017082 -0.0174324,0.0449512 -0.000350399,0.0622209 0.017082,0.0172697 0.0449512,0.0174198 0.0622209,0.000337885l0.103418 -0.102279 0.10333 0.102492c0.0171821,0.017082 0.0449637,0.0170069 0.0620457,-0.000162685 0.017082,-0.0171821 0.0170069,-0.0449637 -0.000162685,-0.0620457l-0.132063 -0.130987c-0.000613199,-0.000700798 -0.00125143,-0.0014016 -0.00191468,-0.00206485 -0.017082,-0.0172697 -0.0449512,-0.0174198 -0.0622209,-0.000337885l-0.134303 0.132826z"/>
   <path id="_624916544" class="fil0" d="M1.35962 1.63523c-0.017082,-0.0172697 -0.0449387,-0.0174198 -0.0622084,-0.000337885 -0.0172822,0.017082 -0.0174324,0.0449512 -0.000350399,0.0622209l0.102279 0.103418 -0.102492 0.10333c-0.017082,0.0171821 -0.0170069,0.0449637 0.0001752,0.0620457 0.0171696,0.017082 0.0449512,0.0170069 0.0620332,-0.000162685l0.130987 -0.132063c0.000713313,-0.000613199 0.0014016,-0.00125143 0.00206485,-0.00191468 0.0172822,-0.017082 0.0174324,-0.0449512 0.000350399,-0.0622209l-0.132839 -0.134316z"/>
   <rect id="_624915728" class="fil1" x="0.442079" y="1.25889" width="0.148307" height="0.406568"/>
   <rect id="_624915704" class="fil1" x="0.656873" y="1.07734" width="0.148307" height="0.588125"/>
   <rect id="_624915344" class="fil1" x="0.871668" y="0.895788" width="0.148307" height="0.769681"/>
   <rect id="_624915944" class="fil1" x="1.08646" y="0.714236" width="0.148307" height="0.951238"/>
  </g>
 </g>
</svg>
